Coordinates
version=1
nRows=17
nColumns=33
inDegrees=yes

Units are S.I. units (second, meters, Newtons, ...)
Angles are in degrees.

endheader
time	ground_thorax_rot_x	ground_thorax_rot_y	ground_thorax_rot_z	ground_thorax_tx	ground_thorax_ty	ground_thorax_tz	clav_prot_r	clav_elev_r	scapula_abduction_r	scapula_elevation_r	scapula_upward_rot_r	scapula_winging_r	shoulder_elv_r	plane_of_elev_r	axial_rot_r	elbow_flexion_r	pro_sup_r	wrist_flex_r	wrist_dev_r	clav_prot_l	clav_elev_l	scapula_abduction_l	scapula_elevation_l	scapula_upward_rot_l	scapula_winging_l	shoulder_elv_l	plane_of_elev_l	axial_rot_l	elbow_flexion_l	pro_sup_l	wrist_flex_l	wrist_dev_l
      2.30000000	     40.45380141	      3.88964276	      6.04118614	   -116.80428296	    804.04578877	      5.00129370	     16.65278088	     41.96287669	     45.00000000	     45.00000000	    -29.68028186	   2075.57513479	  -1910.79245095	    146.67505145	   -127.62227044	    741.90714073	    202.57436528	      8.34276655	      3.96467740	      8.09561385	    -45.00000000	    -45.00000000	     45.00000000	    -16.01220285	  -1708.31119754	  -1729.70147540	     24.19248069	    -15.96224482	   1447.20854243	   -337.92011541	     12.29112893	    -20.40763599
      2.31000000	     40.62670999	      4.06304734	      5.90824586	   -110.24279582	    801.28614901	      5.01827643	     16.50815484	     42.37455718	     45.00000000	     45.00000000	    -28.99622294	   2075.92739027	  -1911.16259735	    146.56712232	   -127.07178111	    741.56188549	    203.70347422	      8.14233518	      3.54997664	      8.31802243	    -45.00000000	    -45.00000000	     45.00000000	    -15.68064121	  -1709.05115159	  -1730.06763999	     24.34449739	    -14.60227257	   1446.93337495	   -337.33255964	     12.21319305	    -20.23835021
      2.32000000	     40.84290472	      3.71914538	      5.24907680	   -103.67599322	    798.48373890	      5.02710933	     16.53903718	     42.41086490	     45.00000000	     45.00000000	    -27.74818471	   2076.53130991	  -1911.42311215	    146.66950515	   -127.87288268	    741.21242177	    205.16158558	      7.95555099	      3.30736417	      7.66590064	    -45.00000000	    -45.00000000	     45.00000000	    -14.79685498	  -1709.80446435	  -1730.47016301	     24.50274436	    -13.86718976	   1446.66982074	   -336.34995963	     12.68027467	    -20.20494872
      2.33000000	     41.05794213	      3.56430233	      4.79530870	    -97.14114201	    795.69730338	      5.01747689	     16.47409583	     42.68639512	     45.00000000	     45.00000000	    -26.77436489	   2076.98542474	  -1911.72073447	    146.63235095	   -127.39239373	    740.81613951	    206.35428846	      7.80375172	      3.03890533	      7.57397991	    -45.00000000	    -45.00000000	     45.00000000	    -14.17535019	  -1710.55938245	  -1730.84369985	     24.69258423	    -12.75392699	   1446.35704540	   -335.42547358	     12.80898378	    -20.12138971
      2.34000000	     41.25688561	      3.41441035	      4.36942350	    -90.64921643	    792.98025971	      4.97238660	     16.28386643	     42.92077262	     45.00000000	     45.00000000	    -25.76003010	   2077.44759162	  -1912.11782209	    146.61845140	   -126.85322472	    740.32374297	    207.46056697	      7.66527937	      2.71679350	      7.47146755	    -45.00000000	    -45.00000000	     45.00000000	    -13.61272904	  -1711.32721516	  -1731.26247352	     24.90450786	    -11.45386360	   1445.93146785	   -334.46812999	     12.93756813	    -20.03151022
      2.35000000	     41.40135941	      3.24254104	      3.92376909	    -84.27768785	    790.39889495	      4.89399605	     16.13636899	     43.09832790	     45.00000000	     45.00000000	    -24.84418521	   2077.79611939	  -1912.49923083	    146.57993740	   -126.45775231	    740.04730283	    208.62823342	      7.47971843	      2.39962495	      7.35684397	    -45.00000000	    -45.00000000	     45.00000000	    -13.07034424	  -1712.05586219	  -1731.58387407	     25.22551062	     -9.92415068	   1445.48731847	   -333.36985804	     13.06669338	    -19.96767896
      2.36000000	     41.61400735	      2.96860190	      3.37086836	    -78.07702480	    788.01727259	      4.77696097	     15.96939038	     43.33701516	     45.00000000	     45.00000000	    -23.91741373	   2078.37607103	  -1912.82756749	    146.72354123	   -126.03333332	    739.51555703	    209.83846167	      7.31266491	      2.05049948	      7.14663494	    -45.00000000	    -45.00000000	     45.00000000	    -12.33758296	  -1712.88409119	  -1732.00316390	     25.50756402	     -7.97042227	   1444.79284335	   -332.13728265	     13.23962963	    -19.90300314
      2.37000000	     41.68799549	      3.11646571	      3.28434716	    -72.13721093	    785.90207327	      4.63370014	     15.79266842	     43.59552593	     45.00000000	     45.00000000	    -23.57100919	   2078.65336613	  -1913.28661391	    146.68701623	   -125.28049906	    739.15079693	    210.96347158	      7.13521422	      1.69565292	      7.39644168	    -45.00000000	    -45.00000000	     45.00000000	    -12.04215985	  -1713.60358590	  -1732.34902459	     25.79382195	     -5.93689134	   1444.13065627	   -331.02606342	     13.18563327	    -19.82459247
      2.38000000	     41.90026209	      1.86367242	      1.69511454	    -66.50268872	    784.10232629	      4.47258212	     15.49348643	     43.75566338	     45.00000000	     45.00000000	    -21.15376383	   2079.10991840	  -1913.78971621	    146.94621191	   -125.25549984	    738.57150885	    213.21466731	      6.89860029	      1.55289732	      6.09140850	    -45.00000000	    -45.00000000	     45.00000000	    -10.64362282	  -1714.47424132	  -1732.51879751	     26.43485972	     -3.36999256	   1443.59542154	   -328.95491067	     13.50137627	    -19.89920099
      2.39000000	     42.00347814	      1.49588786	      1.13604706	    -61.23203080	    782.66239649	      4.31004276	     15.31700561	     43.87371927	     45.00000000	     45.00000000	    -20.18371181	   2079.55131352	  -1914.14626731	    147.09748383	   -124.31278546	    737.98112118	    215.84277025	      6.63048220	      1.48180395	      5.88856940	    -45.00000000	    -45.00000000	     45.00000000	    -10.04788199	  -1715.22983120	  -1732.66803045	     26.81881466	     -0.94011332	   1442.87523009	   -327.32504632	     13.44119306	    -19.88198297
      2.40000000	     42.06619022	      1.58609758	      1.10004551	    -56.32975104	    781.61092605	      4.14340796	     15.37934875	     44.14131307	     45.00000000	     45.00000000	    -20.18924968	   2080.03020588	  -1914.31911524	    147.16798644	   -123.11611313	    737.43047234	    218.05401423	      6.44064638	      1.47569305	      6.31049360	    -45.00000000	    -45.00000000	     45.00000000	     -9.67671082	  -1715.81430698	  -1732.88670182	     26.96706113	      0.87472219	   1442.17585394	   -326.43069355	     13.31075182	    -19.80416223
      2.41000000	     42.11557788	      1.42209976	      0.86336253	    -51.79955802	    780.95756442	      3.97107020	     15.07985436	     44.26852809	     45.00000000	     45.00000000	    -19.64294848	   2080.22873980	  -1914.79852579	    147.10381405	   -122.27073004	    736.91422524	    220.24671075	      6.24987259	      1.40292573	      6.43354290	    -45.00000000	    -45.00000000	     45.00000000	     -9.49408829	  -1716.39946607	  -1732.92997089	     27.13339891	      2.37730719	   1441.78132648	   -325.70485648	     13.13171018	    -19.72065381
      2.42000000	     42.19513708	      1.43865320	      0.71749443	    -47.64526467	    780.69712804	      3.79116231	     14.53968177	     43.96023256	     45.00000000	     44.93269322	    -19.29494799	   2080.29971402	  -1915.08599339	    147.02766967	   -121.82907277	    736.54657961	    222.05235787	      6.12077177	      1.29699689	      6.39477995	    -45.00000000	    -45.00000000	     45.00000000	    -10.56801075	  -1717.15187883	  -1732.63633793	     27.56683294	      3.10456991	   1441.66882692	   -325.13377603	     12.90123316	    -19.56731257
      2.43000000	     42.18945680	      0.88953607	      0.07767710	    -43.90078524	    780.80477508	      3.60668262	     14.51799100	     44.01878755	     45.00000000	     44.82319105	    -18.28999950	   2080.68900632	  -1915.19324612	    147.21223645	   -121.31316932	    736.15515194	    224.12454828	      5.98496833	      1.38985670	      6.23297343	    -45.00000000	    -45.00000000	     45.00000000	     -9.54987006	  -1717.64948971	  -1732.60661831	     27.64425295	      4.20227506	   1441.19340542	   -324.64485010	     12.77441995	    -19.44849129
      2.44000000	     42.18275911	      0.29857797	     -0.65360192	    -40.57927240	    781.24188568	      3.42074115	     14.25008196	     44.07754709	     45.00000000	     44.72643738	    -17.06068210	   2080.86597704	  -1915.42097513	    147.32651042	   -120.81018296	    735.75613805	    226.47200721	      5.81794199	      1.48248810	      5.98637844	    -45.00000000	    -45.00000000	     45.00000000	     -8.60879625	  -1718.18055385	  -1732.55519339	     27.75299627	      5.25051483	   1440.83193247	   -324.16031062	     12.58925903	    -19.35180365
      2.45000000	     42.22263391	     -0.27797280	     -1.34599453	    -37.71356661	    781.94728177	      3.23932094	     14.03130445	     44.21170114	     45.00000000	     44.75904402	    -15.96873686	   2081.11289552	  -1915.59742535	    147.52781520	   -120.42047843	    735.38838375	    229.13794989	      5.64970484	      1.69842512	      5.71114968	    -45.00000000	    -45.00000000	     45.00000000	     -7.69769378	  -1718.67146348	  -1732.51557638	     27.83246895	      6.20122007	   1440.55584987	   -323.70027014	     12.39237254	    -19.29071796
      2.46000000	     42.21281214	     -0.88271089	     -2.04934947	    -35.30679175	    782.85291646	      3.07008820	     13.86985797	     44.45443410	     45.00000000	     44.75344225	    -14.92680707	   2081.18124257	  -1915.78347244	    147.54643944	   -120.32242894	    734.96116284	    232.27528668	      5.49064666	      2.03807692	      5.43463380	    -45.00000000	    -45.00000000	     45.00000000	     -6.67295565	  -1719.03334162	  -1732.47512029	     27.93234101	      7.04151660	   1440.37150396	   -323.28017419	     12.19633191	    -19.27605850
